<?xml version="1.0" standalone="no"?>
<!DOCTYPE svg PUBLIC "-//W3C//DTD SVG 20010904//EN"
 "http://www.w3.org/TR/2001/REC-SVG-20010904/DTD/svg10.dtd">
<svg version="1.0" xmlns="http://www.w3.org/2000/svg"
 width="1600.000000pt" height="766.000000pt" viewBox="0 0 1600.000000 766.000000"
 preserveAspectRatio="xMidYMid meet">

<g transform="translate(0.000000,766.000000) scale(0.100000,-0.100000)"
fill="#000000" stroke="none">
<path d="M3739 6782 c-20 -9 -53 -37 -75 -62 -106 -124 -126 -149 -160 -205
-86 -143 -121 -272 -151 -550 l-8 -69 -40 -9 c-22 -4 -71 -15 -110 -22 -38 -8
-83 -17 -100 -20 -46 -10 -198 -55 -216 -65 -9 -5 -33 -12 -53 -15 -20 -4 -36
-11 -36 -16 0 -5 -8 -9 -18 -9 -10 0 -26 -6 -37 -14 -11 -7 -35 -17 -52 -21
-18 -3 -33 -10 -33 -15 0 -4 -12 -11 -27 -15 -15 -3 -30 -10 -33 -13 -3 -4
-40 -25 -82 -46 -43 -21 -78 -42 -78 -46 0 -4 -15 -13 -32 -21 -18 -7 -35 -16
-38 -19 -3 -4 -27 -20 -55 -36 -27 -15 -55 -33 -62 -39 -7 -5 -18 -15 -25 -20
-7 -6 -35 -28 -63 -50 -27 -22 -61 -49 -75 -60 -67 -52 -324 -320 -360 -375
-8 -13 -22 -31 -30 -39 -23 -25 -120 -170 -120 -180 0 -5 -4 -11 -9 -13 -17
-6 -166 -294 -186 -359 -4 -13 -11 -28 -15 -34 -4 -5 -17 -41 -29 -80 -13 -38
-26 -79 -31 -90 -12 -27 -29 -86 -45 -160 -7 -33 -16 -71 -19 -85 -4 -14 -11
-54 -16 -90 -6 -36 -15 -99 -22 -140 -6 -43 -11 -175 -10 -310 0 -203 4 -255
26 -380 38 -220 52 -277 108 -445 77 -229 260 -566 392 -720 14 -16 38 -45 53
-64 72 -87 189 -208 265 -273 28 -24 55 -48 62 -53 6 -6 36 -30 66 -55 30 -25
61 -51 68 -57 7 -7 18 -13 23 -13 9 0 67 -37 79 -51 11 -12 178 -109 189 -109
6 0 11 -4 11 -8 0 -5 18 -15 40 -22 22 -7 40 -17 40 -22 0 -4 7 -8 16 -8 9 0
28 -7 42 -15 36 -19 116 -53 157 -66 6 -1 39 -13 75 -27 36 -13 71 -24 78 -24
6 -1 12 -4 12 -8 0 -4 28 -12 63 -18 34 -6 73 -14 87 -17 75 -19 141 -32 205
-40 28 -3 61 -9 75 -13 68 -21 528 -11 690 13 114 18 347 73 395 95 11 5 38
14 60 20 22 7 54 18 72 26 17 8 38 14 47 14 9 0 16 4 16 9 0 5 12 12 26 15 27
7 155 66 164 76 5 6 49 26 62 29 9 2 188 116 204 129 5 5 21 15 34 22 28 15
45 28 68 52 9 10 21 18 28 18 6 0 23 12 37 28 35 35 66 62 72 62 8 0 248 244
269 275 23 32 47 61 84 103 12 14 32 42 44 61 12 20 25 38 28 41 3 3 17 23 30
45 13 22 27 42 30 45 20 17 162 291 181 350 7 19 15 40 19 45 4 6 24 62 45
125 21 63 41 124 45 135 9 24 21 83 57 265 24 126 26 155 26 420 0 266 -2 294
-26 425 -33 176 -47 245 -57 270 -4 11 -24 72 -45 135 -33 103 -68 184 -153
360 -15 30 -30 57 -34 58 -5 2 -8 8 -8 13 0 5 -22 43 -50 85 -27 41 -50 79
-50 84 0 4 -7 10 -15 14 -8 3 -15 10 -15 17 0 6 -15 30 -32 53 -18 22 -36 46
-40 51 -64 86 -324 356 -365 379 -10 5 -23 17 -30 26 -7 10 -45 39 -85 66 -40
27 -78 54 -84 59 -6 6 -22 17 -34 25 -12 8 -28 20 -34 26 -6 5 -24 17 -41 26
-35 18 -177 94 -203 108 -9 5 -53 25 -97 45 -44 20 -92 43 -107 51 -14 8 -37
14 -50 14 -12 0 -35 6 -50 14 -15 8 -41 17 -59 21 -19 4 -40 11 -49 16 -22 11
-72 23 -92 20 -9 -1 -19 3 -23 9 -3 5 -18 10 -33 10 -49 0 -51 7 -57 162 -3
81 -8 157 -11 170 -3 13 -10 48 -15 78 -12 68 -31 126 -57 171 -11 19 -28 57
-38 84 -10 28 -20 52 -24 55 -3 3 -14 22 -25 43 -11 22 -50 67 -86 101 -50 48
-76 64 -105 69 -62 11 -96 8 -135 -11z m291 -442 c67 -53 84 -212 38 -360
l-24 -75 -47 0 c-26 1 -139 2 -252 3 l-205 2 0 23 c0 60 86 246 152 328 88
110 250 148 338 79z m-106 -662 c-3 -33 -159 -244 -241 -325 -85 -85 -119
-105 -134 -82 -20 33 -53 202 -57 295 -6 142 -19 135 231 132 183 -3 202 -5
201 -20z m-533 -141 c10 -70 32 -179 48 -244 16 -64 27 -122 23 -127 -4 -6
-61 -63 -127 -126 -304 -291 -547 -596 -651 -815 -136 -287 -160 -474 -104
-803 39 -224 59 -299 114 -417 157 -336 466 -582 824 -656 120 -24 365 -26
461 -4 36 9 68 12 73 7 4 -4 30 -96 58 -204 41 -161 51 -218 56 -319 8 -146
-5 -248 -43 -331 -47 -105 -177 -202 -332 -249 -63 -18 -87 -21 -163 -15 -94
6 -183 36 -176 58 2 6 24 18 49 26 77 26 171 108 211 187 8 17 21 61 29 98 11
61 11 75 -5 135 -26 99 -44 131 -112 197 -89 88 -181 112 -316 84 -111 -24
-191 -89 -239 -195 -27 -59 -29 -72 -29 -189 0 -118 2 -128 30 -191 75 -163
240 -274 457 -310 154 -25 297 -2 448 74 104 51 230 182 268 278 68 171 57
338 -47 751 -20 78 -36 145 -36 150 0 4 31 21 68 36 227 93 470 327 585 564
159 326 154 711 -13 1038 -195 383 -596 635 -1009 635 -116 0 -121 2 -121 52
0 11 36 58 85 110 114 121 212 253 274 369 47 88 161 400 161 442 0 22 21 22
123 -4 319 -80 673 -266 916 -480 257 -227 421 -435 566 -719 104 -204 175
-421 222 -670 25 -138 25 -613 0 -750 -97 -514 -306 -918 -655 -1266 -186
-186 -352 -307 -582 -424 -221 -112 -396 -171 -675 -226 -130 -27 -637 -27
-770 0 -170 33 -416 102 -450 126 -5 4 -28 13 -50 20 -22 7 -100 43 -174 81
-118 61 -196 110 -371 232 -69 48 -350 332 -412 417 -242 328 -374 633 -450
1036 -19 104 -22 152 -22 379 0 286 6 339 69 585 82 322 224 602 447 885 61
77 294 302 378 366 302 228 625 373 990 444 36 6 69 9 73 5 5 -4 17 -64 28
-133z m629 -995 c221 -67 346 -137 488 -276 98 -95 157 -174 212 -284 82 -166
112 -294 112 -487 0 -148 -11 -222 -52 -344 -123 -365 -424 -631 -813 -716
-108 -24 -381 -16 -477 13 -36 11 -83 26 -104 32 -59 18 -193 90 -261 140
-222 163 -361 378 -425 655 -20 83 -22 114 -17 252 6 176 22 252 83 394 127
299 409 539 722 618 117 30 116 30 297 26 133 -2 184 -7 235 -23z"/>
<path d="M2633 5306 c-45 -30 -122 -85 -170 -122 -104 -81 -352 -325 -414
-408 -24 -32 -61 -82 -82 -110 -137 -184 -276 -459 -356 -706 -43 -131 -43
-130 22 -123 167 18 160 16 170 48 5 17 30 81 54 144 171 439 470 818 851
1076 40 27 77 54 82 60 11 14 -48 195 -64 195 -6 0 -48 -24 -93 -54z"/>
<path d="M2610 4763 c-116 -78 -327 -291 -408 -412 -35 -52 -87 -144 -117
-205 -53 -107 -118 -283 -110 -296 2 -4 33 -2 69 3 l65 10 27 71 c111 299 293
539 547 720 57 41 67 52 61 70 -21 64 -32 90 -40 93 -5 2 -48 -22 -94 -54z"/>
<path d="M3620 4460 c-334 -50 -616 -251 -760 -540 -34 -68 -47 -106 -94 -269
-20 -68 -21 -241 -2 -307 8 -27 22 -78 32 -114 66 -246 260 -477 503 -600 207
-104 456 -139 647 -90 218 57 358 130 500 263 318 297 393 747 189 1135 -84
160 -238 314 -402 404 -74 40 -122 59 -279 108 -43 14 -266 20 -334 10z m317
-69 c239 -52 434 -174 572 -361 140 -188 199 -409 172 -646 -7 -58 -19 -125
-28 -148 -8 -22 -24 -66 -36 -96 -11 -30 -40 -86 -65 -124 -213 -335 -640
-506 -1023 -410 -198 49 -386 167 -510 319 -68 82 -150 243 -172 335 -25 102
-39 229 -32 284 20 161 45 247 106 369 180 358 616 563 1016 478z"/>
<path d="M3345 3954 c-114 -24 -138 -49 -46 -49 35 0 55 -5 61 -15 23 -36 2
-444 -31 -610 -12 -58 -30 -127 -40 -155 -10 -27 -19 -51 -19 -52 0 -2 17 -3
39 -3 29 0 42 6 53 23 21 31 40 232 45 490 4 154 8 217 16 217 7 0 26 -42 44
-93 17 -50 46 -132 64 -182 18 -49 60 -171 94 -270 34 -98 67 -181 72 -182 8
-3 60 98 98 192 9 22 26 60 37 85 11 25 29 65 40 90 11 25 26 58 33 75 8 16
32 71 54 120 50 111 66 138 82 144 9 3 10 -8 5 -40 -3 -24 -9 -159 -13 -301
-7 -276 0 -335 41 -363 27 -19 79 -18 140 4 67 23 71 41 9 41 -55 0 -65 5 -83
40 -25 48 -23 315 7 713 l6 88 -43 -3 c-48 -3 -51 -7 -105 -128 -15 -36 -43
-98 -62 -137 -70 -154 -101 -222 -149 -330 -27 -62 -52 -113 -56 -113 -3 0
-13 19 -22 43 -63 177 -110 307 -121 337 -7 19 -34 94 -60 165 -26 72 -54 138
-63 148 -15 16 -74 22 -127 11z"/>
<path d="M13335 5009 c-113 -17 -205 -81 -255 -178 -42 -82 -50 -151 -50 -423
l0 -258 -85 0 -85 0 0 -100 0 -100 85 0 85 0 0 -400 0 -400 110 0 110 0 0 400
0 400 160 0 160 0 0 100 0 100 -161 0 -160 0 3 268 c3 262 3 268 28 316 14 28
37 59 52 70 38 27 134 34 176 12 30 -16 32 -15 45 6 63 103 77 132 70 139 -17
17 -117 47 -173 52 -30 3 -82 1 -115 -4z"/>
<path d="M6760 4047 l0 -897 115 0 115 0 2 543 3 543 310 -432 c170 -238 312
-431 315 -429 3 2 148 204 320 450 l315 446 3 -561 2 -560 115 0 115 0 0 897
c0 493 -2 894 -4 892 -2 -2 -196 -272 -430 -599 -235 -327 -431 -595 -436
-595 -5 0 -197 266 -426 590 -229 325 -420 594 -425 600 -5 5 -9 -355 -9 -888z"/>
<path d="M11284 4611 c-45 -27 -64 -59 -64 -107 0 -111 151 -164 229 -80 31
33 40 106 17 141 -40 61 -123 82 -182 46z"/>
<path d="M10424 4163 c-115 -34 -202 -139 -211 -256 -13 -165 63 -252 285
-328 144 -49 189 -81 199 -141 8 -51 -12 -93 -56 -120 -30 -19 -50 -23 -121
-23 -73 0 -92 4 -136 27 -28 15 -65 39 -83 53 -17 15 -37 25 -44 22 -6 -2 -30
-30 -51 -61 l-39 -57 28 -29 c40 -42 135 -89 212 -105 291 -62 513 74 513 313
0 53 -6 80 -25 119 -40 79 -100 118 -278 180 -56 19 -116 46 -134 59 -92 70
-44 191 83 210 54 8 153 -20 204 -57 l39 -29 42 61 c22 33 38 67 35 74 -9 24
-108 74 -178 90 -84 19 -217 18 -284 -2z"/>
<path d="M12141 4154 c-318 -85 -473 -442 -326 -749 37 -78 116 -162 196 -208
168 -98 481 -83 618 30 l23 19 -56 66 -56 67 -62 -32 c-56 -29 -70 -32 -152
-32 -77 0 -99 4 -146 26 -220 104 -266 397 -89 566 59 55 122 78 219 78 78 0
91 -3 163 -39 44 -22 81 -35 86 -30 4 5 29 37 54 70 52 70 53 68 -34 118 -105
60 -312 84 -438 50z"/>
<path d="M8940 3752 c0 -444 1 -455 66 -531 148 -173 457 -133 615 79 l26 34
7 -92 8 -92 99 0 99 0 0 500 0 500 -109 0 -109 0 -4 -287 c-4 -270 -5 -291
-26 -345 -57 -143 -178 -229 -300 -212 -58 9 -103 41 -129 94 -23 43 -23 51
-23 397 l0 353 -110 0 -110 0 0 -398z"/>
<path d="M11240 3650 l0 -500 110 0 110 0 0 500 0 500 -110 0 -110 0 0 -500z"/>
<path d="M13720 4145 c0 -2 103 -220 230 -483 l229 -478 -113 -255 -114 -254
106 -3 c58 -1 108 1 112 5 6 7 616 1404 636 1456 6 16 -1 18 -96 15 l-103 -3
-158 -355 -158 -355 -39 85 c-21 47 -94 208 -162 358 l-124 272 -123 0 c-68 0
-123 -2 -123 -5z"/>
<path d="M7210 2560 l0 -280 30 0 30 0 1 78 c0 103 15 142 60 166 35 19 38 19
63 3 26 -17 26 -19 26 -132 l0 -115 35 0 35 0 0 124 c0 108 -2 126 -20 149
-37 47 -115 47 -170 0 l-30 -25 0 156 0 156 -30 0 -30 0 0 -280z"/>
<path d="M6770 2765 l0 -35 65 0 65 0 0 -225 0 -225 35 0 35 0 0 225 0 225 70
0 70 0 0 35 0 35 -170 0 -170 0 0 -35z"/>
<path d="M8230 2540 l0 -262 108 4 c76 3 116 9 140 21 90 48 97 180 12 234
l-30 19 25 24 c58 55 51 156 -14 194 -26 15 -58 20 -137 24 l-104 5 0 -263z
m201 171 c17 -13 23 -29 23 -56 0 -54 -29 -75 -105 -75 l-59 0 0 75 0 75 59 0
c43 0 65 -5 82 -19z m17 -221 c27 -17 32 -25 32 -58 0 -58 -25 -76 -116 -80
l-74 -4 0 81 0 81 63 0 c44 0 71 -6 95 -20z"/>
<path d="M10092 2787 c-49 -15 -127 -90 -147 -139 -27 -67 -24 -176 6 -235 29
-56 93 -108 152 -124 56 -15 173 -6 220 16 l37 19 0 108 0 108 -85 0 -85 0 0
-35 0 -35 50 0 50 0 0 -55 0 -54 -42 -12 c-83 -22 -180 14 -225 83 -23 34 -28
53 -28 102 0 161 144 246 306 181 21 -8 47 44 27 57 -44 28 -171 36 -236 15z"/>
<path d="M11902 2774 c-93 -46 -145 -131 -145 -234 1 -76 20 -125 68 -179 53
-58 123 -84 210 -79 79 5 119 22 171 75 69 68 91 167 62 267 -16 55 -109 148
-164 164 -69 20 -144 15 -202 -14z m170 -44 c49 -14 94 -53 119 -103 31 -59
24 -151 -15 -202 -73 -95 -194 -110 -282 -33 -89 78 -95 195 -16 280 36 37 95
67 137 68 11 0 37 -5 57 -10z"/>
<path d="M9480 2645 l0 -65 -30 0 c-25 0 -30 -4 -30 -25 0 -21 5 -25 30 -25
l30 0 0 -125 0 -125 30 0 29 0 3 123 3 122 38 3 c32 3 37 7 37 28 0 21 -4 24
-40 24 l-40 0 0 65 0 65 -30 0 -30 0 0 -65z"/>
<path d="M7660 2567 c-100 -66 -97 -223 4 -271 39 -18 109 -21 154 -5 28 10
30 13 20 35 -8 17 -17 23 -27 18 -9 -3 -34 -8 -56 -11 -31 -4 -46 0 -69 18
-34 27 -35 26 106 75 57 20 104 37 105 38 1 1 -7 20 -17 44 -25 55 -70 82
-136 82 -36 0 -61 -6 -84 -23z m140 -52 c29 -30 24 -35 -60 -65 -36 -12 -71
-25 -77 -27 -27 -10 -14 57 16 88 38 38 88 40 121 4z"/>
<path d="M8710 2567 c-71 -47 -95 -146 -54 -217 35 -60 132 -87 213 -59 35 12
36 16 17 42 -11 14 -19 16 -40 7 -43 -16 -81 -12 -111 12 -33 26 -34 25 107
74 57 20 104 37 105 38 1 1 -7 20 -17 44 -25 55 -70 82 -136 82 -36 0 -61 -6
-84 -23z m140 -52 c29 -30 24 -35 -60 -65 -36 -12 -71 -25 -77 -27 -27 -10
-14 57 16 88 38 38 88 40 121 4z"/>
<path d="M9073 2570 c-18 -10 -40 -34 -49 -52 -22 -43 -22 -124 0 -166 38 -72
139 -95 210 -47 l36 24 0 -24 c0 -21 5 -25 30 -25 l30 0 0 150 0 150 -30 0
c-24 0 -30 -4 -30 -21 0 -20 -1 -20 -31 5 -39 33 -117 36 -166 6z m168 -59
c64 -64 21 -181 -66 -181 -55 0 -105 53 -105 110 0 58 41 100 100 100 33 0 48
-6 71 -29z"/>
<path d="M10530 2568 c-55 -38 -73 -70 -73 -131 0 -67 24 -112 75 -138 47 -24
123 -25 168 -1 42 22 80 90 80 142 0 49 -38 111 -80 132 -51 26 -129 23 -170
-4z m151 -57 c63 -63 22 -181 -64 -181 -91 0 -130 118 -62 186 35 35 88 33
126 -5z"/>
<path d="M10930 2567 c-100 -67 -97 -223 4 -271 40 -19 107 -21 153 -4 37 13
38 16 19 41 -11 14 -19 16 -40 7 -43 -16 -81 -12 -111 12 -33 26 -34 25 107
74 57 20 104 37 105 38 1 1 -7 20 -17 44 -25 55 -70 82 -136 82 -36 0 -61 -6
-84 -23z m140 -52 c29 -30 24 -35 -60 -65 -36 -12 -71 -25 -77 -27 -27 -10
-14 57 16 88 38 38 88 40 121 4z"/>
<path d="M11291 2580 c-35 -15 -50 -40 -51 -81 0 -42 11 -54 84 -89 41 -20 51
-30 51 -50 0 -36 -40 -48 -89 -25 -34 16 -39 17 -53 2 -14 -14 -13 -17 18 -36
37 -23 117 -28 150 -11 29 16 51 67 44 102 -6 25 -17 35 -71 59 -69 31 -84 50
-63 75 13 16 54 16 91 0 11 -5 20 -1 27 13 9 17 8 22 -8 31 -30 16 -103 21
-130 10z"/>
<path d="M12520 2579 c-14 -5 -35 -20 -47 -31 l-23 -21 0 26 c0 23 -4 27 -30
27 l-30 0 0 -150 0 -150 30 0 30 0 1 78 c0 103 15 142 60 166 35 19 38 19 63
3 26 -17 26 -19 26 -132 l0 -115 35 0 35 0 0 124 c0 115 -2 127 -23 151 -25
30 -86 41 -127 24z"/>
</g>
</svg>
